<?xml version="1.0" encoding="UTF-8" standalone="no"?>
<!-- Created with Inkscape (http://www.inkscape.org/) -->

<svg
   width="98.833572mm"
   height="94.69706mm"
   viewBox="0 0 98.833572 94.69706"
   version="1.1"
   id="svg1"
   xml:space="preserve"
   inkscape:version="1.3 (0e150ed, 2023-07-21)"
   sodipodi:docname="ghost_logo.svg"
   xmlns:inkscape="http://www.inkscape.org/namespaces/inkscape"
   xmlns:sodipodi="http://sodipodi.sourceforge.net/DTD/sodipodi-0.dtd"
   xmlns="http://www.w3.org/2000/svg"
   xmlns:svg="http://www.w3.org/2000/svg"><sodipodi:namedview
     id="namedview1"
     pagecolor="#ffffff"
     bordercolor="#000000"
     borderopacity="0.25"
     inkscape:showpageshadow="2"
     inkscape:pageopacity="0.0"
     inkscape:pagecheckerboard="0"
     inkscape:deskcolor="#d1d1d1"
     inkscape:document-units="mm"
     inkscape:zoom="0.4204826"
     inkscape:cx="-203.33778"
     inkscape:cy="216.41799"
     inkscape:window-width="1728"
     inkscape:window-height="1051"
     inkscape:window-x="1056"
     inkscape:window-y="1478"
     inkscape:window-maximized="1"
     inkscape:current-layer="layer1" /><defs
     id="defs1" /><g
     inkscape:label="Layer 1"
     inkscape:groupmode="layer"
     id="layer1"
     transform="translate(-51.979572,-160.77456)"><path
       style="color:#000000;fill:#000000;-inkscape-stroke:none"
       d="m 98.626953,160.8418 c -6.050513,0.35688 -12.21135,2.1207 -18.003906,4.99023 l -0.07227,0.0371 -0.07031,0.0391 c -9.899246,5.74494 -14.368849,16.0301 -16.9375,26.7168 -2.567085,10.68019 -3.377768,22.03342 -5.550782,30.61133 -1.513071,5.59121 -3.533852,9.89769 -4.83789,13.68554 -0.652858,1.89637 -1.147403,3.68404 -1.173828,5.53516 -0.02643,1.85112 0.53141,3.7883 1.785156,5.37305 1.223698,1.54676 3.055582,2.24811 4.753906,2.4375 1.698325,0.18938 3.391458,-0.0311 5.044922,-0.37305 3.306929,-0.68395 6.598475,-1.93154 8.240234,-2.31836 0.591756,-0.13942 0.783773,-0.0782 1.376954,0.30274 0.593181,0.3809 1.39897,1.18493 2.339843,2.18554 1.881747,2.00122 4.526607,4.89424 8.816407,5.34961 3.928741,0.41704 7.170642,-1.51707 9.998046,-3.09375 2.827405,-1.57667 5.272764,-2.80606 7.234375,-2.68164 2.54342,0.16133 4.18541,1.42789 6.89063,2.96094 2.70522,1.53305 6.42226,3.02263 11.80078,2.36523 3.54499,-0.43329 5.4816,-3.0855 7.06641,-5.04101 1.5848,-1.95551 2.90091,-3.48758 5.4707,-4.13672 1.92476,-0.4862 4.63691,-0.59458 7.34179,-0.89453 2.70489,-0.29996 5.58639,-0.71617 7.76954,-2.83008 1.19163,-1.15384 2.20028,-2.67067 2.66992,-4.50586 0.46963,-1.83519 0.27951,-4.0892 -1.03125,-5.97266 -2.99699,-4.3064 -6.10472,-10.13377 -9.51172,-19.05664 -2.98403,-7.81512 -3.83291,-16.96171 -6.42578,-25.69726 -2.59288,-8.73555 -7.23256,-17.16742 -17.64649,-22.53711 -5.34779,-2.75746 -11.28737,-3.80805 -17.337889,-3.45117 z m 0.224609,4.86914 c 5.299048,-0.31863 10.401098,0.59435 14.884768,2.90625 9.13968,4.71265 12.80908,11.50565 15.21094,19.59765 2.40185,8.092 3.23288,17.37468 6.54492,26.04883 3.50723,9.18536 6.79257,15.39821 10.06445,20.09961 0.46733,0.67152 0.50417,1.22208 0.30859,1.98633 -0.19557,0.76425 -0.74459,1.64042 -1.33984,2.2168 -0.68968,0.6678 -2.49526,1.22331 -4.91992,1.49218 -2.42466,0.26888 -5.28276,0.32583 -7.99805,1.01172 -4.05725,1.02488 -6.40791,3.75423 -8.05859,5.79102 -1.65068,2.03678 -2.51938,3.10946 -3.87695,3.27539 -4.34227,0.53074 -6.46628,-0.44188 -8.8125,-1.77149 -2.34623,-1.3296 -4.96558,-3.32736 -8.98047,-3.58203 -3.914882,-0.24831 -7.107446,1.72507 -9.912113,3.28907 -2.804667,1.56399 -5.188572,2.70842 -7.115235,2.5039 -2.352803,-0.24975 -3.896498,-1.83518 -5.785156,-3.84375 -0.944329,-1.00428 -1.918046,-2.08821 -3.255859,-2.94726 -1.337814,-0.85905 -3.226835,-1.38968 -5.121094,-0.94336 -2.340124,0.55136 -5.363571,1.72076 -8.111328,2.28906 -1.373878,0.28415 -2.644029,0.39841 -3.519531,0.30078 -0.875502,-0.0976 -1.227762,-0.30465 -1.476563,-0.61914 -0.580559,-0.73383 -0.750277,-1.30802 -0.736328,-2.28516 0.01395,-0.97713 0.327855,-2.33574 0.908203,-4.02148 1.160697,-3.37149 3.306509,-7.97656 4.939453,-14.01953 l 0.0059,-0.0176 0.0039,-0.0195 c 2.350197,-9.26658 3.134134,-20.55194 5.570312,-30.6875 2.428621,-10.10412 6.361262,-18.78939 14.578125,-23.59766 5.252197,-2.5916 10.724182,-4.13589 16,-4.45312 z"
       id="path1-6" /><g
       id="path2-0"
       transform="translate(-4.3088763,59.892399)"><path
         style="color:#000000;fill:#ff0000;-inkscape-stroke:none"
         d="m 95.65736,137.91328 a 5.4453087,9.099144 0 0 1 -5.445309,9.09915 5.4453087,9.099144 0 0 1 -5.445308,-9.09915 5.4453087,9.099144 0 0 1 5.445308,-9.09914 5.4453087,9.099144 0 0 1 5.445309,9.09914 z"
         id="path5-3" /><path
         style="color:#000000;fill:#000000;fill-opacity:1;-inkscape-stroke:none"
         d="m 90.212891,127.50391 c -2.095667,0 -3.840265,1.40397 -4.976563,3.30273 -1.136298,1.89876 -1.78125,4.38276 -1.78125,7.10742 0,2.72467 0.644952,5.20866 1.78125,7.10742 1.136298,1.89877 2.880896,3.30274 4.976563,3.30274 2.095666,0 3.838311,-1.40397 4.974609,-3.30274 1.136298,-1.89876 1.78125,-4.38275 1.78125,-7.10742 0,-2.72466 -0.644952,-5.20866 -1.78125,-7.10742 -1.136298,-1.89876 -2.878943,-3.30273 -4.974609,-3.30273 z"
         id="path6-2"
         sodipodi:nodetypes="sssssssss" /></g><g
       id="path2-9-6"
       transform="translate(-4.3088763,59.892399)"><path
         style="color:#000000;fill:#000000;fill-opacity:1;-inkscape-stroke:none"
         d="m 117.3125,127.50391 c -2.09567,0 -3.84026,1.40397 -4.97656,3.30273 -1.1363,1.89876 -1.78125,4.38276 -1.78125,7.10742 0,2.72467 0.64495,5.20866 1.78125,7.10742 1.1363,1.89877 2.88089,3.30274 4.97656,3.30274 2.09567,0 3.83831,-1.40397 4.97461,-3.30274 1.1363,-1.89876 1.78125,-4.38275 1.78125,-7.10742 0,-2.72466 -0.64495,-5.20866 -1.78125,-7.10742 -1.1363,-1.89876 -2.87894,-3.30273 -4.97461,-3.30273 z"
         id="path4-9"
         sodipodi:nodetypes="sssssssss" /></g></g></svg>
